<svg width="150" height="70" viewBox="0 0 1081 185" fill="none" xmlns="http://www.w3.org/2000/svg">
<g clip-path="url(#clip0)">
<rect width="1081" height="185" fill="white"/>
<path d="M10.656 36.2H55.728C59.568 36.2 61.488 37.976 61.488 41.528V105.608C61.488 115.208 58.992 122.84 54 128.504C49.104 134.168 42.288 137 33.552 137C27.216 137 21.456 135.608 16.272 132.824C11.184 129.944 7.44 125.48 5.04 119.432C4.848 119.048 4.752 118.712 4.752 118.424C4.752 116.984 5.424 116.024 6.768 115.544C7.92 115.16 8.832 114.968 9.504 114.968C10.272 114.968 10.896 115.544 11.376 116.696C12.528 119.672 14.16 122.168 16.272 124.184C18.48 126.2 20.832 127.592 23.328 128.36C27.264 129.416 30.672 129.944 33.552 129.944C47.376 129.944 54.288 121.88 54.288 105.752V43.4H10.656C8.832 43.4 7.92 42.44 7.92 40.52V39.08C7.92 38.312 8.16 37.64 8.64 37.064C9.216 36.488 9.888 36.2 10.656 36.2ZM105.596 39.944C106.46 37.352 108.284 36.056 111.068 36.056C113.948 36.056 115.868 37.4 116.828 40.088L149.948 133.112C150.044 133.4 150.092 133.736 150.092 134.12C150.092 136.04 149.132 137 147.212 137H145.484C144.236 137 143.324 136.376 142.748 135.128L111.356 45.704L79.8199 135.128C79.2439 136.376 78.3319 137 77.0839 137H75.3559C73.4359 137 72.4759 136.04 72.4759 134.12C72.4759 133.736 72.5239 133.4 72.6199 133.112L105.596 39.944ZM98.8279 92.648H123.74C124.508 92.648 125.18 92.936 125.756 93.512C126.332 93.992 126.62 94.664 126.62 95.528V96.824C126.62 97.688 126.332 98.408 125.756 98.984C125.18 99.464 124.508 99.704 123.74 99.704H98.8279C97.0039 99.704 96.0919 98.744 96.0919 96.824V95.528C96.0919 93.608 97.0039 92.648 98.8279 92.648ZM221.644 36.2H223.228C224.092 36.2 224.812 36.488 225.388 37.064C226.252 38.024 226.348 39.128 225.676 40.376L200.476 85.592L227.548 132.824C227.836 133.4 227.98 133.928 227.98 134.408C227.98 136.136 227.02 137 225.1 137H223.516C222.46 137 221.74 136.712 221.356 136.136L196.588 92.792L174.7 133.112C172.972 135.992 171.052 137.432 168.94 137.432C165.292 137.432 163.468 135.512 163.468 131.672V39.08C163.468 38.312 163.708 37.64 164.188 37.064C164.764 36.488 165.484 36.2 166.348 36.2H167.788C168.652 36.2 169.324 36.488 169.804 37.064C170.38 37.64 170.668 38.312 170.668 39.08V125.48L199.18 73.352L219.628 37.064C220.012 36.488 220.684 36.2 221.644 36.2ZM300.167 36.2H301.607C302.375 36.2 303.047 36.488 303.623 37.064C304.199 37.64 304.487 38.312 304.487 39.08V100.856C304.487 107.768 303.335 113.768 301.031 118.856C298.727 123.848 295.751 127.592 292.103 130.088C285.383 134.792 278.519 137.144 271.511 137.144H269.783C262.775 137.144 255.815 134.792 248.903 130.088C245.255 127.592 242.279 123.848 239.975 118.856C237.767 113.768 236.663 107.768 236.663 100.856V39.08C236.663 38.312 236.903 37.64 237.383 37.064C237.959 36.488 238.679 36.2 239.543 36.2H240.983C241.847 36.2 242.519 36.488 242.999 37.064C243.575 37.64 243.863 38.312 243.863 39.08V100.856C243.863 106.52 244.775 111.416 246.599 115.544C248.423 119.576 250.823 122.6 253.799 124.616C258.983 128.072 264.407 129.896 270.071 130.088H271.367C276.839 129.896 282.215 128.024 287.495 124.472C290.375 122.552 292.727 119.576 294.551 115.544C296.375 111.416 297.287 106.52 297.287 100.856V39.08C297.287 38.312 297.527 37.64 298.007 37.064C298.583 36.488 299.303 36.2 300.167 36.2ZM325.442 36.2H340.994C352.514 36.2 360.914 37.784 366.194 40.952C373.586 45.464 377.282 52.664 377.282 62.552C377.09 67.16 375.794 71.528 373.394 75.656C370.994 79.784 367.106 82.808 361.73 84.728C366.53 85.784 370.466 87.8 373.538 90.776C376.706 93.656 378.818 96.584 379.874 99.56C380.93 102.536 381.458 106.088 381.458 110.216C381.458 114.344 380.45 118.52 378.434 122.744C376.514 126.968 373.682 130.184 369.938 132.392C364.466 135.464 356.69 137 346.61 137H325.73C323.234 137 321.506 136.568 320.546 135.704C319.682 134.744 319.25 132.968 319.25 130.376V42.536C319.25 40.04 319.634 38.36 320.402 37.496C321.266 36.632 322.946 36.2 325.442 36.2ZM340.85 43.4H326.45V129.944H348.914C365.81 129.944 374.258 123.08 374.258 109.352C374.258 103.688 371.906 98.792 367.202 94.664C362.594 90.44 356.066 88.328 347.618 88.328H337.97C336.914 88.328 336.146 88.328 335.666 88.328C335.186 88.232 334.61 87.944 333.938 87.464C333.362 86.888 333.074 85.976 333.074 84.728C333.074 83.384 333.554 82.52 334.514 82.136C335.57 81.752 337.01 81.56 338.834 81.56H347.906C355.874 81.56 361.538 79.592 364.898 75.656C368.354 71.72 370.082 67.304 370.082 62.408C370.082 57.32 368.45 53.096 365.186 49.736C361.25 45.512 353.138 43.4 340.85 43.4ZM534.503 35.768C536.039 35.768 537.383 36.296 538.535 37.352C539.687 38.312 540.263 39.848 540.263 41.96V134.12C540.263 134.888 539.975 135.56 539.399 136.136C538.919 136.712 538.247 137 537.383 137H536.087C535.223 137 534.503 136.712 533.927 136.136C533.447 135.56 533.207 134.888 533.207 134.12V48.44L508.151 110.36C507.095 112.856 505.367 114.248 502.967 114.536C500.183 114.536 498.215 113.192 497.063 110.504L470.567 47.864V134.12C470.567 134.888 470.279 135.56 469.703 136.136C469.127 136.712 468.455 137 467.687 137H466.247C465.479 137 464.807 136.712 464.231 136.136C463.751 135.56 463.511 134.888 463.511 134.12V41.96C463.511 37.832 465.383 35.768 469.127 35.768C471.719 35.768 473.639 37.208 474.887 40.088L502.535 105.32L528.743 40.088C530.087 37.208 532.007 35.768 534.503 35.768ZM564.224 36.2H565.52C566.288 36.2 566.96 36.488 567.536 37.064C568.112 37.64 568.4 38.312 568.4 39.08V134.12C568.4 134.888 568.112 135.56 567.536 136.136C566.96 136.712 566.288 137 565.52 137H564.224C563.36 137 562.64 136.712 562.064 136.136C561.584 135.56 561.344 134.888 561.344 134.12V39.08C561.344 38.312 561.584 37.64 562.064 37.064C562.64 36.488 563.36 36.2 564.224 36.2ZM603.276 39.08C606.732 37.448 609.756 36.44 612.348 36.056C615.036 35.576 617.628 35.336 620.124 35.336C622.716 35.336 625.308 35.576 627.9 36.056C630.492 36.44 633.324 37.352 636.396 38.792C639.564 40.136 642.396 41.912 644.892 44.12C647.388 46.232 649.596 49.208 651.516 53.048C653.436 56.792 654.636 61.16 655.116 66.152C655.116 68.264 654.156 69.32 652.236 69.32H650.94C649.212 69.32 648.252 68.456 648.06 66.728C647.58 62.696 646.572 59.144 645.036 56.072C643.5 53 641.724 50.648 639.708 49.016C637.692 47.384 635.388 46.04 632.796 44.984C628.956 43.352 625.356 42.536 621.996 42.536C618.732 42.536 615.996 42.728 613.788 43.112C611.676 43.496 609.276 44.312 606.588 45.56C603.9 46.808 601.548 48.488 599.532 50.6C597.516 52.616 595.788 55.496 594.348 59.24C593.004 62.984 592.332 67.304 592.332 72.2V100.424C592.332 105.32 593.1 109.64 594.636 113.384C596.172 117.128 597.996 120.056 600.108 122.168C602.316 124.184 604.86 125.816 607.74 127.064C612.348 129.08 616.668 130.088 620.7 130.088C624.732 130.088 628.14 129.752 630.924 129.08C633.804 128.312 636.636 127.016 639.42 125.192C645.372 121.448 648.348 114.488 648.348 104.312C648.348 102.68 648.588 101.624 649.068 101.144C649.644 100.664 650.364 100.424 651.228 100.424H652.38C654.3 100.424 655.26 101.384 655.26 103.304C655.26 109.16 654.3 114.296 652.38 118.712C650.556 123.128 648.396 126.488 645.9 128.792C643.404 131 640.476 132.776 637.116 134.12C631.932 136.136 627.372 137.144 623.436 137.144C619.596 137.144 616.236 136.904 613.356 136.424C610.572 135.944 607.404 134.888 603.852 133.256C600.396 131.624 597.324 129.56 594.636 127.064C592.044 124.568 589.836 121.064 588.012 116.552C586.188 111.944 585.276 106.712 585.276 100.856V71.624C585.276 65.576 586.14 60.248 587.868 55.64C589.692 51.032 591.852 47.528 594.348 45.128C596.94 42.632 599.916 40.616 603.276 39.08ZM725.741 36.2H727.037C727.901 36.2 728.573 36.488 729.053 37.064C729.629 37.64 729.917 38.312 729.917 39.08V134.12C729.917 134.888 729.629 135.56 729.053 136.136C728.573 136.712 727.901 137 727.037 137H725.741C724.973 137 724.301 136.712 723.725 136.136C723.149 135.56 722.861 134.888 722.861 134.12V39.08C722.861 38.312 723.149 37.64 723.725 37.064C724.301 36.488 724.973 36.2 725.741 36.2ZM670.301 36.2H671.597C672.461 36.2 673.133 36.488 673.613 37.064C674.189 37.64 674.477 38.312 674.477 39.08V134.12C674.477 134.888 674.189 135.56 673.613 136.136C673.133 136.712 672.461 137 671.597 137H670.301C669.533 137 668.861 136.712 668.285 136.136C667.709 135.56 667.421 134.888 667.421 134.12V39.08C667.421 38.312 667.709 37.64 668.285 37.064C668.861 36.488 669.533 36.2 670.301 36.2ZM680.237 80.408H717.389C718.157 80.408 718.829 80.696 719.405 81.272C719.981 81.848 720.269 82.52 720.269 83.288V84.728C720.269 85.496 719.981 86.168 719.405 86.744C718.829 87.32 718.157 87.608 717.389 87.608H680.237C679.469 87.608 678.797 87.32 678.221 86.744C677.645 86.168 677.357 85.496 677.357 84.728V83.288C677.357 82.52 677.645 81.848 678.221 81.272C678.797 80.696 679.469 80.408 680.237 80.408ZM774.971 39.944C775.835 37.352 777.659 36.056 780.443 36.056C783.323 36.056 785.243 37.4 786.203 40.088L819.323 133.112C819.419 133.4 819.467 133.736 819.467 134.12C819.467 136.04 818.507 137 816.587 137H814.859C813.611 137 812.699 136.376 812.123 135.128L780.731 45.704L749.195 135.128C748.619 136.376 747.707 137 746.459 137H744.731C742.811 137 741.851 136.04 741.851 134.12C741.851 133.736 741.899 133.4 741.995 133.112L774.971 39.944ZM768.203 92.648H793.115C793.883 92.648 794.555 92.936 795.131 93.512C795.707 93.992 795.995 94.664 795.995 95.528V96.824C795.995 97.688 795.707 98.408 795.131 98.984C794.555 99.464 793.883 99.704 793.115 99.704H768.203C766.379 99.704 765.467 98.744 765.467 96.824V95.528C765.467 93.608 766.379 92.648 768.203 92.648ZM834.427 36.2H835.867C836.635 36.2 837.307 36.488 837.883 37.064C838.459 37.64 838.747 38.312 838.747 39.08V129.944H886.843C888.667 129.944 889.579 130.904 889.579 132.824V134.12C889.579 134.888 889.291 135.56 888.715 136.136C888.235 136.712 887.611 137 886.843 137H837.451C833.515 137 831.547 134.936 831.547 130.808V39.08C831.547 38.312 831.835 37.64 832.411 37.064C832.987 36.488 833.659 36.2 834.427 36.2ZM908.303 59.096C908.303 52.856 910.847 47.432 915.935 42.824C921.023 38.216 927.935 35.912 936.671 35.912C945.503 35.912 952.895 38.264 958.847 42.968C964.895 47.576 968.111 54.488 968.495 63.704C968.495 64.472 968.207 65.192 967.631 65.864C967.055 66.44 966.383 66.728 965.615 66.728H964.175C963.503 66.728 962.879 66.488 962.303 66.008C961.727 65.432 961.391 64.76 961.295 63.992C961.007 56.696 958.559 51.416 953.951 48.152C949.343 44.792 943.823 43.112 937.391 43.112C930.479 43.112 925.103 44.696 921.263 47.864C917.423 51.032 915.503 54.968 915.503 59.672C915.503 64.28 916.847 67.976 919.535 70.76C923.279 74.504 930.239 78.344 940.415 82.28C952.511 87.08 960.575 91.88 964.607 96.68C967.679 100.328 969.215 105.56 969.215 112.376C969.215 119.192 966.431 125.048 960.863 129.944C955.391 134.744 947.567 137.144 937.391 137.144C929.807 137.144 922.655 135.08 915.935 130.952C912.383 128.744 909.455 125.672 907.151 121.736C904.943 117.704 903.743 113.096 903.551 107.912C903.551 105.896 904.511 104.888 906.431 104.888H907.727C909.455 104.888 910.415 105.8 910.607 107.624C910.799 111.848 911.855 115.544 913.775 118.712C915.695 121.784 918.095 124.088 920.975 125.624C926.543 128.6 932.639 130.088 939.263 130.088C945.983 130.088 951.455 128.36 955.679 124.904C959.999 121.352 962.159 116.936 962.159 111.656C962.159 106.28 960.431 102.152 956.975 99.272C954.191 96.968 951.167 95 947.903 93.368C943.679 91.352 937.055 88.52 928.031 84.872C921.119 81.8 916.079 78.296 912.911 74.36C909.839 70.328 908.303 65.24 908.303 59.096ZM1043.03 36.2H1044.62C1045.48 36.2 1046.2 36.488 1046.78 37.064C1047.64 38.024 1047.74 39.128 1047.07 40.376L1021.87 85.592L1048.94 132.824C1049.23 133.4 1049.37 133.928 1049.37 134.408C1049.37 136.136 1048.41 137 1046.49 137H1044.91C1043.85 137 1043.13 136.712 1042.75 136.136L1017.98 92.792L996.091 133.112C994.363 135.992 992.443 137.432 990.331 137.432C986.683 137.432 984.859 135.512 984.859 131.672V39.08C984.859 38.312 985.099 37.64 985.579 37.064C986.155 36.488 986.875 36.2 987.739 36.2H989.179C990.043 36.2 990.715 36.488 991.195 37.064C991.771 37.64 992.059 38.312 992.059 39.08V125.48L1020.57 73.352L1041.02 37.064C1041.4 36.488 1042.07 36.2 1043.03 36.2ZM1065.97 36.2H1067.27C1068.04 36.2 1068.71 36.488 1069.29 37.064C1069.86 37.64 1070.15 38.312 1070.15 39.08V134.12C1070.15 134.888 1069.86 135.56 1069.29 136.136C1068.71 136.712 1068.04 137 1067.27 137H1065.97C1065.11 137 1064.39 136.712 1063.81 136.136C1063.33 135.56 1063.09 134.888 1063.09 134.12V39.08C1063.09 38.312 1063.33 37.64 1063.81 37.064C1064.39 36.488 1065.11 36.2 1065.97 36.2Z" fill="black"/>
</g>
<defs>
<clipPath id="clip0">
<rect width="1081" height="185" fill="white"/>
</clipPath>
</defs>
</svg>
